<svg xmlns="http://www.w3.org/2000/svg" viewBox="0 0 114 114"><g id="Layer_2" data-name="Layer 2"><g id="Layer_1-2" data-name="Layer 1"><path d="M0,0H114V114H0Z" style="fill:none"/><path d="M57,9.46A47.31,47.31,0,1,1,9.69,56.77,47.31,47.31,0,0,1,57,9.46Zm0,9.46A37.85,37.85,0,1,0,94.84,56.77,37.86,37.86,0,0,0,57,18.92ZM66.27,47A4.73,4.73,0,0,1,71,51.73V71H64V90H50V71H43V51.73A4.73,4.73,0,0,1,47.73,47ZM57,23.65a9.47,9.47,0,1,1-9.46,9.46A9.47,9.47,0,0,1,57,23.65Z" style="fill:#0062ff"/></g></g></svg>