<svg xmlns="http://www.w3.org/2000/svg" viewBox="0 0 114 114"><g id="Layer_2" data-name="Layer 2"><g id="Layer_1-2" data-name="Layer 1"><path d="M0,0H114V114H0Z" style="fill:none"/><path d="M100,62.71V95h5v10H10V95h4V62.71A21.5,21.5,0,0,1,4.44,44.83a21.27,21.27,0,0,1,3-11l13-22.46A4.77,4.77,0,0,1,24.55,9H89.46a4.76,4.76,0,0,1,4.11,2.38l12.92,22.38A21.48,21.48,0,0,1,100,62.71Zm-9,3.66a21.64,21.64,0,0,1-18-6.46,21.65,21.65,0,0,1-31.1,0,21.6,21.6,0,0,1-18,6.45V95H91V66.37ZM27.63,19,16.07,39A11.87,11.87,0,0,0,37.28,49.54a4.75,4.75,0,0,1,8.82,0,11.88,11.88,0,0,0,22.06,0,4.75,4.75,0,0,1,8.82,0A11.87,11.87,0,0,0,99,40.6a11.18,11.18,0,0,0-.83-1.66L86.63,19Z" style="fill:#0062ff"/></g></g></svg>