<svg xmlns="http://www.w3.org/2000/svg" viewBox="0 0 114 114"><g id="Layer_2" data-name="Layer 2"><g id="Layer_1-2" data-name="Layer 1"><path d="M0,0H114V114H0Z" style="fill:none"/><path d="M57.29,109.25A35.63,35.63,0,0,0,92.92,73.63a35.58,35.58,0,0,0-2.38-11.74Q78.67,73.63,72.49,73.63c19-33.25,8.55-47.5-19.95-66.5,2.38,23.75-13.28,34.55-19.65,40.55a35.62,35.62,0,0,0,24.4,61.57ZM60.67,25c15.39,13.06,15.47,23.21,3.57,44.05a9.5,9.5,0,0,0,8.25,14.21,21.11,21.11,0,0,0,10.07-2.83A26.12,26.12,0,1,1,39.4,54.73c.59-.57,3.63-3.26,3.76-3.38,2-1.8,3.67-3.4,5.31-5.16A49.7,49.7,0,0,0,60.66,25Z" style="fill:#0062ff"/></g></g></svg>