<svg xmlns="http://www.w3.org/2000/svg" viewBox="0 0 107 107"><g id="Layer_2" data-name="Layer 2"><g id="Layer_1-2" data-name="Layer 1"><path d="M0,0H107V107H0Z" style="fill:none"/><path d="M66.35,8.92A17.84,17.84,0,0,1,84.19,26.75a26.06,26.06,0,0,1-2.4,10h20.75v7.8H93.63V89.17a4.46,4.46,0,0,1-4.46,4.46H17.83a4.46,4.46,0,0,1-4.45-4.46V44.58H4.46V35.67h19.7A17.83,17.83,0,0,1,53,15,17.72,17.72,0,0,1,66.35,8.92ZM49,44.58H22.29V84.71H49Zm35.67,0H58V84.71H84.71ZM40.13,17.83a8.92,8.92,0,0,0-.67,17.81l.67,0H49V26.75a8.91,8.91,0,0,0-7.56-8.81l-.69-.08Zm26.75,0A8.92,8.92,0,0,0,58,26.08l0,.67v8.92h8.92a8.92,8.92,0,0,0,8.89-8.25l0-.67A8.92,8.92,0,0,0,66.88,17.83Z" style="fill:#0062ff"/></g></g></svg>