<svg xmlns="http://www.w3.org/2000/svg" viewBox="0 0 922.07 195.89"><g id="Layer_2" data-name="Layer 2"><g id="Layer_1-2" data-name="Layer 1"><rect x="0.07" y="0.1" width="922" height="195.79" rx="42.91" style="fill:#fb6970;opacity:0.1"/><rect width="203.24" height="195.79" rx="42.91" style="fill:#fb6970;opacity:0.2"/><path d="M281.49,139.36V45.76h27v93.6Z" style="fill:#fb6970"/><path d="M359.88,69.29c24.05,0,38.87,14.17,38.87,35.36,0,25-16.9,36.66-38.74,36.66s-38.74-12-38.74-35.23C321.27,82.42,336.87,69.29,359.88,69.29Zm-11.57,35.36c0,12.87,4.81,18.46,11.7,18.46,7.28,0,11.7-5.59,11.7-18.46,0-10-4.42-17.55-11.44-17.16C351,87.49,348.31,97,348.31,104.65Z" style="fill:#fb6970"/><path d="M411.49,139.36V45.76h27v93.6Z" style="fill:#fb6970"/><path d="M501.19,139.36l-1.3-7.28c-7.67,7.15-15.47,9.23-25.61,9.23-12.87,0-24.31-6.37-24.31-20.54,0-30.94,48.49-16.9,48.49-29.64,0-4.94-6-5.59-8.84-5.59-3.77,0-8.84.78-9.49,6.63h-26c0-14.43,10.27-22.88,37.18-22.88,32.24,0,34.19,12,34.19,28.21v31.85c0,3.9.13,5.85,3.64,8.71v1.3Zm-2.73-30.16c-8.84,4.29-20.54,2.21-20.54,11,0,3.38,3.25,5.72,8.58,5.72C496,126,499.11,118.56,498.46,109.2Z" style="fill:#fb6970"/><path d="M563.45,118.17a7.53,7.53,0,0,0,2.87,6.24,10.9,10.9,0,0,0,6.63,2.08c4.16,0,8.58-1.3,8.58-6.11,0-10.92-41.74-2.21-41.74-28.6,0-17.42,18.07-22.49,32.25-22.49,14.82,0,32.24,3.38,33.8,21.45H581.27a7.1,7.1,0,0,0-2.6-4.94,8.55,8.55,0,0,0-5.46-1.69c-4.68,0-7.68,1.43-7.68,4.81,0,9.49,43,3.12,43,28.6,0,14.17-11.7,23.79-36.66,23.79-15.6,0-32.77-4.81-34.2-23.14Z" style="fill:#fb6970"/><path d="M619.09,45.76h27V79.82c5.46-6.89,11.57-10.53,20.68-10.53,17.94,0,26.39,10.53,26.39,29.25v40.82h-27v-36c0-6.76-1.83-12.74-9.5-12.74-8.32,0-10.53,5.33-10.53,14v34.71h-27Z" style="fill:#fb6970"/><path d="M707.62,43.29h27V62.53h-27Zm0,96.07V71.24h27v68.12Z" style="fill:#fb6970"/><path d="M772.88,71.24V81.38h.26c3.77-8.32,13.52-12.09,21.32-12.09,20.54,0,30.42,16.77,30.42,35.49,0,26.78-16.64,36.53-31.85,36.53-7.41,0-12.87-3-17.42-8.71v29.9h-27V71.24Zm25,33.93c0-10.79-4.68-15.86-11.83-15.86-6.5,0-10.92,6.24-10.92,15.34,0,9.49,4,16,11,16S797.84,114.53,797.84,105.17Z" style="fill:#fb6970"/><path d="M155.18,60.6s0-.06,0-.09a1.85,1.85,0,0,0,0-.23.28.28,0,0,0,0-.09,1.55,1.55,0,0,0,0-.23l0-.08a1.89,1.89,0,0,0-.11-.25l0,0h0a2,2,0,0,0-.17-.23l0,0a1.12,1.12,0,0,0-.2-.18l0,0a2.25,2.25,0,0,0-.21-.12l-.08,0,0,0-.16,0-.11,0-.22,0h-.45l-.19,0-.1,0h0l-.06,0L143,62.56,49.15,97.29h0a1.67,1.67,0,0,0-1,2.15,1.65,1.65,0,0,0,.93,1L69.45,110.5l6,32.81h0a1.67,1.67,0,0,0,3.15.44l10.36-18.47,25.58,25.22h0a1.68,1.68,0,0,0,2.76-.65l37.8-88.78h0a1.27,1.27,0,0,0,.06-.18.29.29,0,0,0,0-.09A1.57,1.57,0,0,0,155.18,60.6Z" style="fill:#fb6970"/><polygon points="136.77 68.42 70.87 107.47 53.94 99.08 136.77 68.42" style="fill:#fb6970"/><path d="M77.87,138.15l-5.08-27.93,69-40.9-54.44,52,0,0a1.63,1.63,0,0,0-.17.2.18.18,0,0,0,0,.07.86.86,0,0,0-.07.1h0Z" style="fill:#fff"/><polygon points="115.1 146.41 90.93 122.58 148.8 67.26 115.1 146.41" style="fill:#fb6970"/></g></g></svg>