<svg xmlns="http://www.w3.org/2000/svg" viewBox="0 0 743.89 127.32"><g id="Layer_2" data-name="Layer 2"><g id="Layer_1-2" data-name="Layer 1"><path d="M147.89,2.52a.41.41,0,0,0,0-.11,1.82,1.82,0,0,0,0-.33.49.49,0,0,0,0-.12,1.67,1.67,0,0,0-.08-.32l0-.12a2.41,2.41,0,0,0-.15-.33l0-.06v0a2.43,2.43,0,0,0-.24-.32l0-.05A2.26,2.26,0,0,0,147,.49l-.06,0a1.89,1.89,0,0,0-.28-.17l-.11-.06-.06,0-.22-.07-.15,0-.3,0-.15,0h-.3l-.15,0h0L145,.1l-.14,0h0a.32.32,0,0,1-.09,0l-13.62,5L1.52,53.18h0a2.31,2.31,0,0,0-1.37,3,2.35,2.35,0,0,0,1.29,1.33L29.55,71.41l8.23,45.3h0a2.31,2.31,0,0,0,4.35.61l14.3-25.5,35.31,34.82h0a2.32,2.32,0,0,0,3.27,0,2.27,2.27,0,0,0,.54-.87L147.72,3.21h0A2.17,2.17,0,0,0,147.8,3a.56.56,0,0,0,0-.12A1.88,1.88,0,0,0,147.89,2.52Zm-25.41,10.8-91,53.92L8.13,55.65ZM41.17,109.59,34.16,71l95.28-56.47L54.29,86.4l0,0a3,3,0,0,0-.23.27l-.07.1-.1.14h0ZM92.56,121,59.19,88.09l79.9-76.37Z" style="fill:#0062ff"/><path d="M200.5,102.67V9.07h27v93.6Z" style="fill:#0062ff"/><path d="M278.89,32.6c24.05,0,38.87,14.17,38.87,35.36,0,25-16.9,36.66-38.74,36.66s-38.75-12-38.75-35.23C240.27,45.73,255.88,32.6,278.89,32.6ZM267.32,68c0,12.87,4.81,18.46,11.7,18.46,7.28,0,11.7-5.59,11.7-18.46,0-10-4.42-17.55-11.44-17.16C270.05,50.8,267.32,60.29,267.32,68Z" style="fill:#0062ff"/><path d="M330.49,102.67V9.07h27v93.6Z" style="fill:#0062ff"/><path d="M420.19,102.67l-1.29-7.28c-7.68,7.15-15.48,9.23-25.62,9.23-12.87,0-24.31-6.37-24.31-20.54,0-30.94,48.49-16.9,48.49-29.64,0-4.94-6-5.59-8.84-5.59-3.77,0-8.84.78-9.49,6.63h-26c0-14.43,10.27-22.88,37.18-22.88,32.25,0,34.2,12,34.2,28.21V92.66c0,3.9.13,5.85,3.64,8.71v1.3Zm-2.73-30.16c-8.84,4.29-20.54,2.21-20.54,11,0,3.38,3.25,5.72,8.58,5.72C415,89.28,418.11,81.87,417.46,72.51Z" style="fill:#0062ff"/><path d="M482.46,81.48a7.55,7.55,0,0,0,2.86,6.24A10.9,10.9,0,0,0,492,89.8c4.16,0,8.58-1.3,8.58-6.11,0-10.92-41.73-2.21-41.73-28.6,0-17.42,18.07-22.49,32.24-22.49,14.82,0,32.24,3.38,33.8,21.45H500.27a7.1,7.1,0,0,0-2.6-4.94,8.55,8.55,0,0,0-5.46-1.69c-4.68,0-7.67,1.43-7.67,4.81,0,9.49,43,3.12,43,28.6,0,14.17-11.7,23.79-36.66,23.79-15.6,0-32.76-4.81-34.19-23.14Z" style="fill:#0062ff"/><path d="M538.1,9.07h27V43.13c5.46-6.89,11.57-10.53,20.67-10.53,17.94,0,26.39,10.53,26.39,29.25v40.82h-27v-36c0-6.76-1.82-12.74-9.49-12.74-8.32,0-10.53,5.33-10.53,14v34.71h-27Z" style="fill:#0062ff"/><path d="M626.63,6.6h27V25.84h-27Zm0,96.07V34.55h27v68.12Z" style="fill:#0062ff"/><path d="M691.89,34.55V44.69h.26c3.77-8.32,13.52-12.09,21.32-12.09,20.54,0,30.42,16.77,30.42,35.49,0,26.78-16.64,36.53-31.85,36.53-7.41,0-12.87-3-17.42-8.71v29.9h-27V34.55Zm25,33.93c0-10.79-4.68-15.86-11.83-15.86-6.5,0-10.92,6.24-10.92,15.34,0,9.49,4,16,11,16S716.85,77.84,716.85,68.48Z" style="fill:#0062ff"/></g></g></svg>