<svg xmlns="http://www.w3.org/2000/svg" width="278.21" height="269.099" viewBox="0 0 278.21 269.099">
  <g id="Group_1294" data-name="Group 1294" transform="translate(-551.895 -1273.451)">
    <path id="Polygon_8" data-name="Polygon 8" d="M160.314,8.271A40,40,0,0,1,204.07,22.489l3.485,4.642a40,40,0,0,0,19.038,13.832l5.492,1.88a40,40,0,0,1,27.043,37.221l.091,5.8a40,40,0,0,0,7.272,22.381L269.828,113a40,40,0,0,1,0,46.008l-3.338,4.748a40,40,0,0,0-7.272,22.381l-.09,5.8a40,40,0,0,1-27.043,37.221l-5.492,1.88a40,40,0,0,0-19.038,13.832l-3.485,4.642a40,40,0,0,1-43.756,14.217l-5.548-1.708a40,40,0,0,0-23.532,0l-5.548,1.708A40,40,0,0,1,81.93,249.512l-3.485-4.642a40,40,0,0,0-19.038-13.832l-5.492-1.88a40,40,0,0,1-27.043-37.221l-.09-5.8a40,40,0,0,0-7.272-22.381L16.172,159a40,40,0,0,1,0-46.008l3.338-4.748a40,40,0,0,0,7.272-22.381l.09-5.8A40,40,0,0,1,53.915,42.842l5.492-1.88A40,40,0,0,0,78.445,27.131l3.485-4.642A40,40,0,0,1,125.686,8.271l5.548,1.708a40,40,0,0,0,23.532,0Z" transform="translate(548 1272)" fill="#2bcbba" stroke="#fff" stroke-width="10"/>
    <path id="Path_940" data-name="Path 940" d="M17,40.334,48.334,71.668,111,9" transform="translate(626.998 1368.166)" fill="none" stroke="#fff" stroke-linecap="round" stroke-linejoin="round" stroke-width="30"/>
  </g>
</svg>
